<svg width="20" height="21" viewBox="0 0 20 21" fill="none" xmlns="http://www.w3.org/2000/svg">
<mask id="mask0_12202_858" style="mask-type:alpha" maskUnits="userSpaceOnUse" x="0" y="0" width="20" height="21">
<rect y="0.5" width="20" height="20" fill="#D9D9D9"/>
</mask>
<g mask="url(#mask0_12202_858)">
<path d="M4.16667 18.8333C3.70833 18.8333 3.31597 18.6701 2.98958 18.3437C2.66319 18.0173 2.5 17.625 2.5 17.1666V5.49996C2.5 5.04163 2.66319 4.64927 2.98958 4.32288C3.31597 3.99649 3.70833 3.83329 4.16667 3.83329H5V2.16663H6.66667V3.83329H13.3333V2.16663H15V3.83329H15.8333C16.2917 3.83329 16.684 3.99649 17.0104 4.32288C17.3368 4.64927 17.5 5.04163 17.5 5.49996V17.1666C17.5 17.625 17.3368 18.0173 17.0104 18.3437C16.684 18.6701 16.2917 18.8333 15.8333 18.8333H4.16667ZM4.16667 17.1666H15.8333V8.83329H4.16667V17.1666ZM4.16667 7.16663H15.8333V5.49996H4.16667V7.16663Z" fill="#333333"/>
</g>
</svg>
