<svg width="23" height="23" viewBox="0 0 23 23" fill="none" xmlns="http://www.w3.org/2000/svg">
<path d="M5.16699 18.4676C5.16699 18.6685 5.32826 18.8334 5.53336 18.8334H16.8035C16.9007 18.8331 16.9938 18.7945 17.0625 18.726C17.1312 18.6575 17.17 18.5646 17.1703 18.4676V17.1283H5.16657L5.16699 18.4676ZM20.1766 6.73743C20.1111 6.69315 20.0333 6.6707 19.9542 6.67329C19.8752 6.67589 19.799 6.7034 19.7366 6.75188L14.89 10.5986L11.4876 4.34382C11.3629 4.10595 10.9744 4.10934 10.8459 4.34382L7.44349 10.5986L2.59689 6.75188C2.53553 6.70255 2.45976 6.67447 2.38102 6.67186C2.30228 6.66926 2.22482 6.69227 2.16031 6.73743C2.09502 6.78171 2.04581 6.84589 2.02004 6.92038C1.99428 6.99486 1.99333 7.07567 2.01734 7.15074L5.0287 16.3964H17.3082L20.3161 7.15074C20.3398 7.07598 20.339 6.99564 20.3139 6.92134C20.2888 6.84704 20.2407 6.78264 20.1766 6.73743Z" fill="url(#paint0_linear_12202_355)"/>
<defs>
<linearGradient id="paint0_linear_12202_355" x1="11.1667" y1="4.16669" x2="11.1667" y2="18.8334" gradientUnits="userSpaceOnUse">
<stop stop-color="#A67230"/>
<stop offset="0.515" stop-color="#E0C46D"/>
<stop offset="1" stop-color="#A97D38"/>
</linearGradient>
</defs>
</svg>
