<svg width="21" height="17" viewBox="0 0 21 17" fill="none" xmlns="http://www.w3.org/2000/svg">
<path d="M17.5 16.5L16.1 15.1L17.2 14H9.8C9.6 14.6 9.24167 15.0833 8.725 15.45C8.20833 15.8167 7.63333 16 7 16C6.36667 16 5.79583 15.8167 5.2875 15.45C4.77917 15.0833 4.41667 14.6 4.2 14H3C2.16667 14 1.45833 13.7083 0.875 13.125C0.291667 12.5417 0 11.8333 0 11V5H6V2H0V0H13C13.55 0 14.0208 0.195833 14.4125 0.5875C14.8042 0.979167 15 1.45 15 2V12H17.15L16.1 10.95L17.5 9.5L21 13L17.5 16.5ZM8 5H13V2H8V5ZM7 14C7.28333 14 7.52083 13.9042 7.7125 13.7125C7.90417 13.5208 8 13.2833 8 13C8 12.7167 7.90417 12.4792 7.7125 12.2875C7.52083 12.0958 7.28333 12 7 12C6.71667 12 6.47917 12.0958 6.2875 12.2875C6.09583 12.4792 6 12.7167 6 13C6 13.2833 6.09583 13.5208 6.2875 13.7125C6.47917 13.9042 6.71667 14 7 14Z" fill="#1C1B1F"/>
</svg>
