<svg width="20" height="21" viewBox="0 0 20 21" fill="none" xmlns="http://www.w3.org/2000/svg">
<path fill-rule="evenodd" clip-rule="evenodd" d="M10 20.5C15.5228 20.5 20 16.0228 20 10.5C20 4.97715 15.5228 0.5 10 0.5C4.47715 0.5 0 4.97715 0 10.5C0 16.0228 4.47715 20.5 10 20.5ZM8.1667 15.0826C8.40992 15.0826 8.52108 14.9744 8.65542 14.8436L8.66673 14.8326L9.86733 13.6651L12.3668 15.5118C12.8267 15.7655 13.1586 15.6342 13.2732 15.0848L14.9136 7.3546C15.0815 6.68125 14.6569 6.37585 14.217 6.57558L4.58447 10.2898C3.92696 10.5536 3.93079 10.9204 4.46462 11.0838L6.93654 11.8554L12.6593 8.24494C12.9294 8.08111 13.1774 8.16919 12.9739 8.34981L8.33777 12.5335L8.33687 12.533L8.1667 15.0826Z" fill="url(#paint0_linear_6201_136)"/>
<defs>
<linearGradient id="paint0_linear_6201_136" x1="10" y1="0.5" x2="10" y2="20.5" gradientUnits="userSpaceOnUse">
<stop stop-color="#36ACE9"/>
<stop offset="1" stop-color="#299DD5"/>
</linearGradient>
</defs>
</svg>
