<svg width="20" height="21" viewBox="0 0 20 21" fill="none" xmlns="http://www.w3.org/2000/svg">
<path fill-rule="evenodd" clip-rule="evenodd" d="M10 20.5C15.5228 20.5 20 16.0228 20 10.5C20 4.97715 15.5228 0.5 10 0.5C4.47715 0.5 0 4.97715 0 10.5C0 16.0228 4.47715 20.5 10 20.5Z" fill="#25D366"/>
<path fill-rule="evenodd" clip-rule="evenodd" d="M10.3296 16.0635H10.3272C9.33196 16.0632 8.35409 15.8135 7.48556 15.3398L4.33334 16.1667L5.17693 13.0853C4.65656 12.1835 4.38274 11.1606 4.38319 10.1126C4.38449 6.83403 7.05201 4.16666 10.3296 4.16666C11.9203 4.16734 13.4133 4.7866 14.5359 5.91058C15.6586 7.0345 16.2765 8.52846 16.2759 10.1173C16.2746 13.3951 13.6081 16.0622 10.3296 16.0635ZM7.63161 14.2633L7.81208 14.3704C8.57091 14.8207 9.44074 15.059 10.3276 15.0593H10.3296C13.0537 15.0593 15.2708 12.8421 15.2719 10.1169C15.2724 8.79633 14.7588 7.55461 13.8257 6.6204C12.8926 5.68619 11.6517 5.17146 10.3316 5.171C7.60538 5.171 5.38824 7.38795 5.38715 10.1129C5.38677 11.0468 5.64807 11.9563 6.1428 12.7432L6.26032 12.9302L5.76103 14.754L7.63161 14.2633ZM13.3253 11.5313C13.2882 11.4693 13.1892 11.4321 13.0406 11.3577C12.892 11.2834 12.1615 10.924 12.0253 10.8743C11.8891 10.8248 11.7901 10.8 11.691 10.9487C11.592 11.0974 11.3072 11.4321 11.2206 11.5313C11.1339 11.6304 11.0472 11.6429 10.8987 11.5685C10.7501 11.4941 10.2714 11.3372 9.70385 10.831C9.26216 10.437 8.96397 9.95051 8.8773 9.80176C8.79063 9.65301 8.86806 9.57263 8.94244 9.49854C9.00929 9.43195 9.09103 9.32496 9.16532 9.23823C9.2396 9.1515 9.26436 9.08948 9.31389 8.99039C9.36341 8.89118 9.33866 8.80445 9.3015 8.73008C9.26436 8.6557 8.96722 7.92437 8.84341 7.62687C8.7228 7.33715 8.60031 7.37639 8.50912 7.37182C8.42255 7.36747 8.32339 7.36655 8.22435 7.36655C8.12531 7.36655 7.96433 7.40374 7.82815 7.55249C7.69196 7.70124 7.30813 8.0607 7.30813 8.79198C7.30813 9.52331 7.84052 10.2298 7.91482 10.329C7.9891 10.4282 8.9625 11.9289 10.453 12.5724C10.8074 12.7255 11.0842 12.817 11.3 12.8854C11.6559 12.9985 11.9798 12.9826 12.2358 12.9443C12.5213 12.9017 13.1148 12.5849 13.2387 12.2378C13.3625 11.8907 13.3625 11.5932 13.3253 11.5313Z" fill="#FDFDFD"/>
</svg>
